<svg width="565" height="343" viewBox="0 0 565 343" fill="none" xmlns="http://www.w3.org/2000/svg">
<g clip-path="url(#clip0_451_2794)">
<path d="M507.473 225.374C507.473 268.338 495.308 308.488 474.209 342.66H84.8211C63.7173 308.488 51.5574 268.338 51.5574 225.374C51.5574 171.571 70.6218 122.172 102.442 83.4238C107.595 77.1511 113.081 71.1578 118.871 65.4693C160.077 24.9992 216.843 0 279.513 0C405.411 0 507.473 100.901 507.473 225.374Z" fill="#D9F9E6"/>
<path d="M444.372 151.732C435.048 151.732 427.486 159.209 427.486 168.427H461.258C461.258 159.209 453.696 151.732 444.372 151.732Z" fill="white"/>
<path d="M345.86 81.6004C350.294 78.2939 355.744 76.44 361.431 76.44C363.774 76.44 366.05 76.7549 368.207 77.3339C368.295 76.5111 368.351 75.6832 368.351 74.835C368.351 61.2079 357.178 50.1609 343.394 50.1609C333.926 50.1609 325.691 55.372 321.458 63.0567C332.257 64.8445 341.37 71.7876 345.86 81.5953V81.6004Z" fill="#A6CCB8"/>
<path d="M297.539 113.116C297.257 112.832 296.979 112.547 296.707 112.253C296.548 112.547 296.378 112.837 296.204 113.116H268.76C267.245 110.688 266.356 107.834 266.356 104.771C266.356 95.9692 273.574 88.8331 282.477 88.8331C285.359 88.8331 288.061 89.5899 290.404 90.9003C292.438 78.7715 303.093 69.5225 315.936 69.5225C328.779 69.5225 338.509 77.9944 341.155 89.3512C342.865 89.788 344.468 90.4838 345.912 91.4082C349.323 86.5475 354.999 83.3629 361.431 83.3629C371.865 83.3629 380.321 91.7231 380.321 102.039C380.321 102.115 380.311 102.186 380.311 102.262C381.8 101.394 383.532 100.886 385.391 100.886C390.929 100.886 395.419 105.325 395.419 110.8C395.419 111.603 395.311 112.375 395.132 113.121H297.544L297.539 113.116Z" fill="white"/>
<path d="M445.97 315.492V341.187H453.157V316.193L485.522 329.266L467.402 283.102L475.781 286.485L461.9 251.125L469.766 254.299L448.698 200.634L427.63 254.299L435.495 251.125L421.614 286.485L429.993 283.102L411.874 329.266L445.97 315.492Z" fill="#A6CCB8"/>
<path d="M248.602 69.4158L247.811 67.9581C247.77 67.887 247.728 67.7956 247.672 67.6889C247.112 66.5817 245.622 63.6358 241.24 62.2594L241.785 60.563C245.638 61.7769 247.605 64.098 248.597 65.6675L248.638 65.5913C248.72 65.4389 250.646 62.0664 255.419 60.563L255.963 62.2594C251.884 63.5444 250.23 66.4141 250.215 66.4446L248.602 69.4209V69.4158Z" fill="white"/>
<path d="M216.658 58.775L215.908 57.6017C215.852 57.5103 215.79 57.4087 215.718 57.297C215.153 56.3574 214.203 54.7879 211.192 53.9753L211.665 52.2585C214.506 53.0255 215.893 54.3968 216.679 55.4838C217.506 54.3664 218.883 53.0153 221.683 52.2585L222.155 53.9753C219.222 54.7676 218.287 56.2456 217.604 57.3224L216.658 58.7801V58.775Z" fill="white"/>
<path d="M187.777 101.586C183.749 101.586 180.086 103.115 177.322 105.599C173.459 99.4126 166.555 95.2732 158.659 95.2732C146.54 95.2732 136.718 104.984 136.718 116.966H203.327C203.327 108.474 196.361 101.586 187.772 101.586H187.777Z" fill="white"/>
<path d="M532.435 341.73L540.156 337.697C539.617 335.986 538.045 335.366 538.045 335.366C535.266 331.13 532.8 321.769 528.659 318.976C529.502 315.598 529.337 308.544 529.337 308.544C529.753 307.04 529.789 305.455 529.445 303.937L528.957 301.91H530.637C533.396 290.823 528.844 279.364 524.051 275.22L521.842 271.791C521.796 271.822 521.755 271.847 521.708 271.873C521.749 271.832 521.791 271.791 521.832 271.751V271.786L522.916 270.903C525.284 268.952 525.875 265.564 524.241 262.979C524.22 262.949 524.205 262.918 524.185 262.893C522.299 259.952 516.91 259.602 515.009 263.832L515.842 264.025C515.795 264.086 515.749 264.142 515.708 264.203C515.42 264.625 515.174 265.087 514.989 265.595C513.925 268.515 514.866 272.685 517.121 273.488C517.64 273.671 518.22 273.671 518.816 273.533C518.611 275.677 518.123 277.637 518.123 277.637L516.155 286.561L515.693 301.859C515.693 301.859 515.718 303.896 516.515 307.269L512.127 318.996L511.038 339.059C511.038 339.059 506.507 338.972 504.699 340.806L513.746 343C514.501 341.517 513.725 339.846 513.725 339.846L513.633 339.82C513.699 339.82 513.746 339.82 513.746 339.82C515.816 333.03 518.01 326.402 517.855 320.774L520.866 318.072C522.109 320.307 523.147 321.896 523.147 321.896L535.404 336.732C535.404 336.732 532.604 339.043 532.445 341.735L532.435 341.73Z" fill="white"/>
<path d="M518.821 336.641C517.979 334.909 516.001 334.538 516.001 334.538L514.46 331.227L513.864 331.765C512.246 327.768 509.096 320.957 505.598 318.478C505.598 318.478 505.66 318.377 505.767 318.189L512.8 317.879L509.81 304.333C510.021 292.717 508.336 286.079 506.862 282.534C508.1 281.884 509.312 280.791 509.79 278.953C509.79 278.953 508.768 268.089 506.672 265.747C504.781 263.645 501.57 263.731 499.587 264.899C498.56 265.498 497.25 267.545 497.25 267.545L497.671 267.652C496.597 270.699 497.111 275.89 499.32 276.815C499.762 276.997 500.26 277.053 500.779 276.997L499.474 281.233L495.996 287.78L497.127 291.879L496.849 294.642C495.534 295.267 494.317 296.1 493.191 296.979C491.275 298.487 489.621 300.133 488.147 301.148C487.987 301.164 487.823 301.204 487.674 301.286L485.789 302.296C485.321 302.606 485.095 303.139 485.157 303.657L484.946 303.749C485.213 304.043 485.532 304.435 485.753 304.841L485.927 304.765C486.385 304.998 486.95 304.993 487.407 304.689L489.061 303.256C489.22 303.119 489.333 302.946 489.4 302.759L494.614 300.224L496.366 299.376L495.822 304.765L493.906 318.686L493.767 319.646V334.416L493.715 334.406L493.767 335.265V338.515C492.914 338.8 489.462 340.003 488.506 341.359L498.056 342.233C498.596 340.516 497.029 338.861 497.029 338.861L497.969 335.234L497.209 335.087C498.416 330.81 499.803 324.416 498.637 320.657C498.997 320.357 499.346 320.037 499.695 319.712L499.824 320.291L511.67 333.71L511.588 333.781L513.797 336.28C513.797 336.28 511.783 339.272 511.809 342.253L518.816 336.611L518.821 336.641Z" fill="white"/>
<path d="M46.3329 231.281H36.1354L30.9365 215.744V212.854H51.5266V215.744L46.3329 231.281Z" fill="white"/>
<path d="M132.808 267.185L142.523 271.492L126.433 226.486L133.296 228.299L111.129 162.226L86.7065 230.524L95.82 226.486L79.7302 271.492L89.4447 267.185L68.4385 325.934L111.129 307.005L153.814 325.934L132.808 267.185Z" fill="#47C988"/>
<path d="M111.129 162.226L133.296 228.299L116.718 222.174L111.129 162.226Z" fill="#47C988"/>
<path d="M118.891 202.432L143.309 270.735L124.481 262.385L118.891 202.432Z" fill="#47C988"/>
<path d="M125.575 256.615H133.029L149.997 324.918L131.169 316.569L125.575 256.615Z" fill="#47C988"/>
<path d="M221.479 172.968L218.488 177.058L219.944 178.099L222.936 174.009L221.479 172.968Z" fill="#401737"/>
<path d="M279.72 172.963L276.728 177.054L278.185 178.095L281.176 174.004L279.72 172.963Z" fill="#401737"/>
<path d="M304.654 229.005L304.403 322.379H133.255V229.005H304.654Z" fill="white"/>
<path d="M363.43 163.648L307.696 229.005H304.654L304.634 322.389H415.193L415.218 228.975L363.43 163.648Z" fill="white"/>
<path d="M189.616 155.572H183.143L122.395 225.018L126.428 229.005H307.696L363.43 163.648L415.218 228.975L421.999 228.995L363.553 155.567H296.851L189.616 155.572Z" fill="white"/>
<path d="M304.469 322.379H133.255V335.183H304.469V322.379Z" fill="white"/>
<path d="M415.768 322.379H304.403V335.183H415.768V322.379Z" fill="white"/>
<path d="M427.532 335.188H264.877V341.669H427.532V335.188Z" fill="white"/>
<path d="M322.373 335.188H121.049V341.669H322.373V335.188Z" fill="white"/>
<path d="M362.757 201.502C356.952 202.371 352.492 207.307 352.492 213.291C352.492 219.274 356.952 224.216 362.757 225.079C368.562 224.216 373.021 219.274 373.021 213.291C373.021 207.307 368.562 202.366 362.757 201.502Z" fill="#47C988"/>
<path d="M358.673 223.362L373.175 209.024C373.005 208.796 372.831 208.567 372.651 208.344C372.04 207.831 371.495 207.267 371.043 206.728L356.094 221.509C356.91 222.199 357.666 223.017 358.673 223.362Z" fill="white"/>
<path d="M374.315 215.998C374.161 214.987 374.213 213.905 374.336 212.849L362.032 225.013H366.481L374.29 217.293C374.269 216.856 374.28 216.429 374.31 215.998H374.315Z" fill="white"/>
<path d="M365.243 201.502C364.781 201.573 364.329 201.675 363.887 201.797C369.014 203.173 372.795 207.79 372.795 213.296C372.795 218.801 369.019 223.418 363.887 224.795C364.334 224.917 364.781 225.018 365.243 225.089C371.048 224.221 375.507 219.284 375.507 213.301C375.507 207.318 371.048 202.376 365.243 201.512V201.502Z" fill="#39B775"/>
<path d="M253.39 255.904H141.999V305.933H253.39V255.904Z" fill="#47C988"/>
<path d="M366.265 282.635H337.358V322.425H366.265V282.635Z" fill="#47C988"/>
<path d="M359.073 269.277H331.24L354.244 241.449H380.948L359.073 269.277Z" fill="#47C988"/>
<path d="M210.894 174.197H190.217V195.265H210.894V174.197Z" fill="#47C988"/>
<path d="M269.13 174.197H248.453V195.265H269.13V174.197Z" fill="#47C988"/>
<path d="M304.089 335.651H190.217L200.553 322.425H304.089V335.651Z" fill="#47C988"/>
<path d="M322.373 341.557V335.056H175.108L170.028 341.557H322.373Z" fill="#39B775"/>
<path d="M304.022 229.005H297.401V322.379H304.022V229.005Z" fill="#39B775"/>
<path d="M308.995 229.706H132.875V233.693H308.995V229.706Z" fill="#39B775"/>
<path d="M304.372 233.683H311.199L363.281 172.973L408.504 229.691H414.951L363.07 165.07L307.434 229.726H304.392L304.372 233.683Z" fill="#39B775"/>
<path d="M303.935 225.013L122.395 225.018L182.768 155.572L363.173 155.567L303.935 225.013Z" fill="#47C988"/>
<path d="M219.222 177.585L200.825 157.126L184.432 175.243V201.38H219.068L240.125 177.554L219.222 177.585Z" fill="white"/>
<path d="M242.915 161.139L229.805 145.973L197.933 145.962L173.3 173.999L176.927 177.554H184.294V175.243L200.687 157.126L219.083 177.59H242.535L242.915 161.144V161.139Z" fill="white"/>
<path d="M311.893 173.562L288.046 145.973L256.174 145.962L231.541 173.999L235.168 177.554H242.535V175.243L258.928 157.126L277.324 177.59H307.968L311.893 173.567V173.562Z" fill="white"/>
<path d="M277.463 177.585L259.066 157.126L242.673 175.243V201.38H277.304L298.361 177.554L277.463 177.585Z" fill="white"/>
<path d="M239.16 177.554L219.222 200.583V177.585H222.921L239.16 177.554Z" fill="#39B775"/>
<path d="M210.545 174.197H190.217V194.295H210.545V174.197Z" fill="#47C988"/>
<path d="M268.956 174.197H248.628V194.295H268.956V174.197Z" fill="#47C988"/>
<path d="M297.401 177.554L277.463 200.583V177.585H281.162L297.401 177.554Z" fill="#39B775"/>
<path d="M193.597 174.568H190.217V195.265H193.597V174.568Z" fill="#39B775"/>
<path d="M210.894 174.197H190.217V176.803H210.894V174.197Z" fill="#39B775"/>
<path d="M251.833 174.568H248.453V195.265H251.833V174.568Z" fill="#39B775"/>
<path d="M269.13 174.197H248.453V176.803H269.13V174.197Z" fill="#39B775"/>
<path d="M242.915 161.139L232.455 173.496H222.212L198.072 145.962L229.805 145.973L242.915 161.139Z" fill="#47C988"/>
<path d="M312.032 174.197L279.836 173.496L255.691 145.962L287.424 145.973L312.032 174.197Z" fill="#47C988"/>
<path d="M224.035 256.011L172.909 306.558H178.514L229.64 256.011H224.035Z" fill="#39B775"/>
<path d="M200.158 256.011L149.032 306.558H154.636L205.762 256.011H200.158Z" fill="#39B775"/>
<path d="M188.219 256.011L141.716 301.986V306.558H142.697L193.818 256.011H188.219Z" fill="#39B775"/>
<path d="M212.097 256.011L160.971 306.558H166.576L217.702 256.011H212.097Z" fill="#39B775"/>
<path d="M152.402 256.011L141.716 266.575V272.116L158.001 256.011H152.402Z" fill="#39B775"/>
<path d="M176.28 256.011L141.716 290.183V295.724L181.879 256.011H176.28Z" fill="#39B775"/>
<path d="M164.341 256.011L141.716 278.379V283.92L169.94 256.011H164.341Z" fill="#39B775"/>
<path d="M141.716 256.011V260.313L146.062 256.011H141.716Z" fill="#39B775"/>
<path d="M235.04 256.011L183.914 306.558H189.518L240.639 256.011H235.04Z" fill="#39B775"/>
<path d="M253.282 285.19L231.669 306.558H237.274L253.282 290.726V285.19Z" fill="#39B775"/>
<path d="M253.282 296.994L243.608 306.558H249.213L253.282 302.53V296.994Z" fill="#39B775"/>
<path d="M253.282 261.582L207.792 306.558H213.396L253.282 267.119V261.582Z" fill="#39B775"/>
<path d="M253.282 273.386L219.73 306.558H225.335L253.282 278.922V273.386Z" fill="#39B775"/>
<path d="M246.979 256.011L195.853 306.558H201.457L252.578 256.011H246.979Z" fill="#39B775"/>
<path d="M349.225 322.425H337.358V334.157H349.225V322.425Z" fill="#39B775"/>
<path d="M354.665 329.373H345.999V335.056H354.665V329.373Z" fill="#39B775"/>
<path d="M242.673 177.585H219.222V202.305H242.673V177.585Z" fill="#39B775"/>
<path d="M287.82 281.051H278.876V287.587H287.82V281.051Z" fill="#D9F9E6"/>
<path d="M277.807 286.297H264.584V292.834H277.807V286.297Z" fill="#D9F9E6"/>
<path d="M414.843 299.665H401.62V306.202H414.843V299.665Z" fill="#D9F9E6"/>
<path d="M253.39 255.904H141.999V260.201H253.39V255.904Z" fill="#39B775"/>
<path d="M146.946 256.356H142.965V305.486H146.946V256.356Z" fill="#39B775"/>
<path d="M465.271 312.327L465.281 311.54V292.387H463.714C453.588 292.387 445.379 300.503 445.379 310.514V316.68C445.379 319.23 447.47 321.292 450.044 321.292H476.007C478.586 321.292 480.672 319.225 480.672 316.68V312.322H465.265L465.271 312.327Z" fill="#47C988"/>
<path d="M496.176 304.948L494.255 318.874L511.208 318.128L513.155 318.041L510.16 304.465L496.176 304.948Z" fill="#47C988"/>
<path d="M528.674 291.681C528.674 291.681 527.19 284.52 524.215 282.884L519.797 284.469L524.996 291.209C523.126 293.997 522.921 299.422 522.047 302.357L515.148 302.423L515.626 286.495L518.061 277.455L521.919 276.835L524.149 274.59C529.137 278.907 533.879 290.838 531.007 302.388L524.483 302.362C526.173 298.594 527.714 295.465 528.674 291.686V291.681Z" fill="#47C988"/>
<path d="M51.3828 212.854H30.9365V217.506H51.3828V212.854Z" fill="#47C988"/>
<path d="M48.3878 324.99H34.548V334.513H48.3878V324.99Z" fill="#47C988"/>
<path d="M454.824 340.328C456.581 338.59 456.581 335.773 454.823 334.035C453.066 332.298 450.217 332.298 448.459 334.035C446.702 335.773 446.702 338.59 448.459 340.328C450.217 342.065 453.066 342.065 454.824 340.328Z" fill="white"/>
<path d="M471.404 340.33C473.162 338.592 473.162 335.775 471.404 334.038C469.647 332.3 466.797 332.3 465.04 334.038C463.282 335.775 463.282 338.592 465.04 340.33C466.797 342.067 469.647 342.067 471.404 340.33Z" fill="white"/>
<path d="M29.9913 334.508H53.2117C55.0662 334.508 56.5714 335.996 56.5714 337.83V341.613H26.6315V337.83C26.6315 335.996 28.1367 334.508 29.9913 334.508Z" fill="white"/>
<path d="M366.779 282.635H337.872V287.587H366.779V282.635Z" fill="#39B775"/>
<path d="M366.774 282.818H362.032V322.42H366.774V282.818Z" fill="#39B775"/>
<path d="M522.916 270.903C525.284 268.952 525.875 265.564 524.241 262.979C524.22 262.949 524.205 262.918 524.184 262.893C522.299 259.952 516.91 259.602 515.009 263.832L518.893 264.747L518.986 266.423L520.763 266.458L521.842 271.786L522.916 270.903Z" fill="#47C988"/>
<path d="M509.841 278.943C509.841 278.943 508.819 268.079 506.723 265.737C504.832 263.634 501.622 263.721 499.639 264.889C498.611 265.488 497.301 267.535 497.301 267.535L503.456 269.11L503.522 283.473C503.522 283.473 508.721 283.26 509.846 278.938L509.841 278.943Z" fill="#47C988"/>
<path d="M498.714 334.873L494.157 333.985L494.707 338.094C494.707 338.094 490.063 340.278 488.964 341.827H498.904C499.444 340.11 497.774 338.5 497.774 338.5L498.714 334.873Z" fill="#47C988"/>
<path d="M513.951 338.5C513.751 339.023 513.535 339.516 513.242 339.973L519.037 336.793C518.667 335.031 516.417 334.427 516.417 334.427L516.083 333.162C515.646 335.006 514.624 336.748 513.946 338.5H513.951Z" fill="#47C988"/>
<path d="M66.8922 327.595L87.8984 268.846L78.1787 273.153L94.2737 228.142L85.1602 232.185L111.155 159.483L130.368 216.749L128.662 217.308L111.098 164.968L88.2528 228.863L97.3663 224.825L81.2765 269.831L90.991 265.524L69.9848 324.273L111.129 306.029L133.62 316.005L132.885 317.63L111.129 307.98L66.8922 327.595Z" fill="#173863"/>
<path d="M112.028 303.591H110.23V342.223H112.028V303.591Z" fill="#173863"/>
<path d="M565 340.781H0V342.558H565V340.781Z" fill="#173863"/>
<path d="M248.391 154.678H238.749V156.456H248.391V154.678Z" fill="#173863"/>
<path d="M305.435 323.268H132.49V228.116H305.692L305.43 323.268H305.435ZM134.293 321.49H303.642L303.894 229.894H134.288V321.49H134.293Z" fill="#173863"/>
<path d="M416.23 323.273H303.874L303.894 228.116H307.413L363.589 162.241L416.251 228.665L416.225 323.273H416.23ZM305.672 321.495H414.432L414.458 229.274L363.543 165.055L308.256 229.889H305.697L305.677 321.49L305.672 321.495Z" fill="#173863"/>
<path d="M308.25 229.894H126.191L121.301 225.059L121.85 224.434L182.871 154.683H189.755V156.461H183.693L123.756 224.972L126.936 228.116H307.413L363.589 162.241L415.794 228.086L420.278 228.101L363.25 156.456H296.99V154.678H364.123L423.993 229.889L414.915 229.859L414.648 229.518L363.538 165.055L308.25 229.894Z" fill="#173863"/>
<path d="M305.502 336.072H132.49V321.49H305.502V336.072ZM134.288 334.294H303.704V323.268H134.288V334.294Z" fill="#173863"/>
<path d="M416.801 336.072H303.637V321.49H416.801V336.072ZM305.435 334.294H415.002V323.268H305.435V334.294Z" fill="#173863"/>
<path d="M388.155 330.262H348.835V321.536H388.155V330.262ZM350.633 328.484H386.357V323.314H350.633V328.484Z" fill="#173863"/>
<path d="M393.601 336.072H354.28V328.479H393.601V336.072ZM356.078 334.295H391.803V330.257H356.078V334.295Z" fill="#173863"/>
<path d="M356.078 336.072H336.952V321.46L350.638 321.5V328.479H356.078V336.072ZM338.75 334.294H354.28V330.257H348.84V323.273L338.75 323.242V334.294Z" fill="#173863"/>
<path d="M243.187 178.474H219.335L201.339 158.457L185.85 175.578V178.438H177.215L172.725 174.04L173.274 173.41C173.274 173.41 197.81 145.485 197.907 145.373L198.175 145.068H198.586L230.873 145.079L244.256 160.56L242.889 161.713L230.046 146.856L198.997 146.846C198.036 147.938 193.823 152.733 175.185 173.948L177.949 176.66H184.047V174.898L201.339 155.785L220.136 176.696H243.182V178.474H243.187Z" fill="#173863"/>
<path d="M219.987 202.269H184.047V174.903L201.339 155.79L220.136 176.696L242.617 176.66L219.987 202.269ZM185.845 200.491H219.171L238.656 178.443L219.335 178.474L201.339 158.457L185.85 175.578V200.486L185.845 200.491Z" fill="#173863"/>
<path d="M220.635 177.585H218.837V201.38H220.635V177.585Z" fill="#173863"/>
<path d="M178.268 178.123L176.891 176.98L201.041 148.548L223.126 172.607H232.969V174.385H222.33L201.093 151.25L178.268 178.123Z" fill="#173863"/>
<path d="M270.543 196.154H248.068V173.308H270.543V196.154ZM249.866 194.376H268.745V175.086H249.866V194.376Z" fill="#173863"/>
<path d="M212.302 196.154H189.827V173.308H212.302V196.154ZM191.625 194.376H210.504V175.086H191.625V194.376Z" fill="#173863"/>
<path d="M309.001 178.474H277.571L259.575 158.457L244.086 175.578V178.438H235.45L230.961 174.04L231.51 173.41C231.51 173.41 256.046 145.485 256.143 145.373L256.41 145.068H256.821L289.109 145.079L313.758 173.598L308.995 178.474H309.001ZM278.377 176.696H308.235L311.333 173.527L288.282 146.861L257.232 146.851C256.272 147.943 252.059 152.738 233.421 173.953L236.19 176.665H242.288V174.903L259.58 155.79L278.377 176.701V176.696Z" fill="#173863"/>
<path d="M278.228 202.269H242.288V174.903L259.58 155.79L278.377 176.696L300.858 176.66L278.228 202.269ZM244.086 200.491H277.412L296.897 178.443L277.576 178.474L259.58 158.457L244.091 175.578V200.486L244.086 200.491Z" fill="#173863"/>
<path d="M278.876 177.585H277.078V201.38H278.876V177.585Z" fill="#173863"/>
<path d="M236.509 178.123L235.132 176.98L259.277 148.548L281.367 172.607H312.545V174.385H280.571L259.334 151.25L236.509 178.123Z" fill="#173863"/>
<path d="M254.803 306.817H141.613V255.01H254.803V306.817ZM143.412 305.039H253.004V256.788H143.412V305.039Z" fill="#173863"/>
<path d="M372.148 323.313H336.973V276.815H372.148V323.313ZM338.771 321.536H370.35V278.592H338.771V321.536Z" fill="#173863"/>
<path d="M367.673 323.313H336.968V281.746H367.673V323.313ZM338.766 321.536H365.875V283.524H338.766V321.536Z" fill="#173863"/>
<path d="M403.695 274.636L382.53 249.271L362.423 274.234H333.711L329.668 270.237L354.326 240.555H383.044L407.851 270.557L403.695 274.631V274.636ZM334.461 272.457H361.56L382.509 246.447L403.829 272.005L405.427 270.44L382.196 242.333H355.184L332.103 270.125L334.466 272.462L334.461 272.457Z" fill="#173863"/>
<path d="M428.57 342.553H321.612V334.294H428.57V342.553ZM323.41 340.775H426.772V336.072H323.41V340.775Z" fill="#173863"/>
<path d="M323.41 342.553H120.284V334.294H323.405V342.553H323.41ZM122.087 340.775H321.612V336.072H122.082V340.775H122.087Z" fill="#173863"/>
<path d="M359.962 271.07H330.885V269.293H359.094L381.919 240.89L383.326 241.998L359.962 271.07Z" fill="#173863"/>
<path d="M364.401 226.12C357.244 226.12 351.424 220.366 351.424 213.291C351.424 206.216 357.244 200.461 364.401 200.461C371.557 200.461 377.372 206.216 377.372 213.291C377.372 220.366 371.552 226.12 364.401 226.12ZM364.401 202.244C358.236 202.244 353.222 207.201 353.222 213.296C353.222 219.391 358.236 224.348 364.401 224.348C370.565 224.348 375.574 219.391 375.574 213.296C375.574 207.201 370.56 202.244 364.401 202.244Z" fill="#173863"/>
<path d="M304.865 225.902H122.528V224.124H304.033L363.003 154.993L364.375 156.141L304.865 225.902Z" fill="#173863"/>
<path d="M178.478 255.904H176.68V305.999H178.478V255.904Z" fill="#173863"/>
<path d="M216.848 255.904H215.05V305.999H216.848V255.904Z" fill="#173863"/>
<path d="M253.903 280.847H142.512V282.625H253.903V280.847Z" fill="#173863"/>
<path d="M532.707 342.319C532.502 342.319 532.301 342.258 532.127 342.137C531.818 341.918 531.664 341.552 531.721 341.182C532.168 338.424 534.788 336.235 534.901 336.143L535.887 337.311C535.887 337.311 534.351 338.601 533.601 340.257L539.165 337.352C538.646 336.448 537.793 336.092 537.752 336.072L538.327 334.66C538.404 334.691 540.244 335.437 540.891 337.469L541.081 338.073L533.17 342.208C533.021 342.284 532.861 342.324 532.702 342.324L532.707 342.319Z" fill="#401737"/>
<path d="M509.189 342.594L503.178 341.253L504.139 340.278C506.158 338.231 510.843 338.302 511.043 338.302L511.013 339.826C510.175 339.81 508.213 339.927 506.708 340.481L509.528 341.111L509.189 342.599V342.594Z" fill="#401737"/>
<path d="M514.804 341.949L513.278 341.751C513.391 340.912 513.037 340.196 513.032 340.191L514.403 339.5C514.465 339.612 514.979 340.653 514.804 341.949Z" fill="#401737"/>
<path d="M515.734 307.508C514.953 304.145 514.922 302.114 514.917 302.027L516.458 302.012C516.458 302.012 516.494 303.978 517.234 307.167L515.734 307.508Z" fill="#401737"/>
<path d="M535.79 337.687C535.61 337.687 535.42 337.667 535.23 337.626L534.968 337.57L522.489 322.46C522.448 322.394 521.421 320.825 520.183 318.59L521.534 317.853C522.649 319.86 523.604 321.353 523.763 321.592L535.8 336.153C536.324 336.148 536.802 335.757 537.1 335.447C536.175 333.919 535.296 331.907 534.367 329.794C532.646 325.868 530.693 321.414 528.222 319.748L527.781 319.448L527.909 318.935C528.716 315.69 528.567 308.772 528.567 308.701L530.108 308.665C530.113 308.945 530.252 315.233 529.517 318.798C532.127 320.855 533.981 325.086 535.779 329.185C536.781 331.465 537.726 333.624 538.692 335.092L538.97 335.513L538.687 335.93C538.636 336.006 537.48 337.672 535.795 337.672L535.79 337.687Z" fill="#401737"/>
<path d="M513.607 340.582C513.093 340.582 511.578 340.506 510.535 339.648L510.237 339.404L511.352 318.844L517.691 301.91L519.135 302.439L512.877 319.154L511.819 338.673C512.235 338.891 512.759 338.993 513.165 339.033L513.489 337.977C515.405 331.74 517.208 325.848 517.069 320.789L517.059 320.439L526.841 311.662C527.647 310.697 528.253 309.549 528.582 308.34C528.962 306.959 528.998 305.491 528.68 304.099L528.197 302.083L529.697 301.733L530.185 303.759C530.555 305.405 530.514 307.127 530.072 308.742C529.676 310.179 528.957 311.54 527.991 312.678L527.919 312.754L518.616 321.099C518.672 326.32 516.869 332.202 514.958 338.419L514.306 340.552L513.756 340.572C513.73 340.572 513.674 340.572 513.597 340.572L513.607 340.582Z" fill="#401737"/>
<path d="M531.238 302.672L525.037 302.652V301.128L530.026 301.143C532.455 290.35 527.883 279.537 523.542 275.789L524.554 274.641C529.959 279.313 534.105 291.138 531.382 302.088L531.238 302.672Z" fill="#401737"/>
<path d="M522.032 302.647L514.896 302.621L515.395 286.399L517.362 277.475L518.867 277.8L516.915 286.658L516.484 301.103L522.037 301.123L522.032 302.647Z" fill="#401737"/>
<path d="M518.39 278.404C518.318 278.404 518.241 278.404 518.164 278.404L517.784 278.394L517.522 278.069C517.373 277.866 517.326 277.597 517.398 277.358C517.496 277.038 517.994 275.316 518.107 273.208L519.648 273.29C519.571 274.732 519.325 276.017 519.124 276.85C521.22 276.657 522.515 275.687 523.085 275.139L521.19 272.198L522.489 271.38L524.981 275.25L524.667 275.672C524.585 275.784 522.582 278.409 518.385 278.409L518.39 278.404Z" fill="#401737"/>
<path d="M517.994 274.397C517.604 274.397 517.224 274.336 516.859 274.204C514.085 273.214 513.114 268.5 514.265 265.336C514.47 264.777 514.989 263.909 515.051 263.812L516.371 264.594C516.232 264.823 515.847 265.493 515.713 265.854C514.763 268.47 515.647 272.157 517.378 272.772C518.508 273.173 520.332 272.325 521.724 270.76L521.775 270.699L522.936 271.7L522.885 271.761C521.621 273.178 519.746 274.392 517.994 274.392V274.397Z" fill="#401737"/>
<path d="M524.991 305.694L523.573 305.1C523.614 305.009 523.635 304.932 523.645 304.861L523.948 302.296C523.969 302.139 523.974 302.124 524.369 301.321C525.232 299.569 527.508 294.957 528.397 291.6C527.971 289.67 526.604 285.088 524.631 283.661L521.554 284.763L526.45 291.107L526.147 291.559C525.566 292.428 524.441 294.871 523.434 301.524C523.373 301.941 523.368 301.971 523.296 302.098L522.15 304.176L520.799 303.444L521.883 301.473C521.888 301.428 521.898 301.367 521.909 301.291C522.643 296.44 523.537 293.047 524.575 291.183L519.052 284.032L524.791 281.98L525.099 282.148C528.294 283.905 529.779 290.691 529.938 291.458L529.974 291.625L529.933 291.793C529.039 295.318 526.65 300.158 525.751 301.981C525.618 302.256 525.515 302.459 525.464 302.571L525.176 305.029C525.15 305.242 525.089 305.455 524.996 305.684L524.991 305.694Z" fill="#401737"/>
<path d="M521.344 273.188L520.136 267.205L518.266 267.17L518.164 265.356L513.936 264.361L514.311 263.523C515.261 261.4 517.105 260.089 519.371 259.922C521.601 259.759 523.738 260.765 524.842 262.481L524.904 262.578C526.722 265.458 526.085 269.287 523.419 271.487L521.349 273.188H521.344ZM519.725 265.671L521.405 265.702L522.351 270.374L522.428 270.308C524.508 268.597 525.007 265.615 523.589 263.375L523.537 263.294C522.746 262.06 521.118 261.308 519.479 261.43C518.112 261.532 516.946 262.202 516.176 263.309L519.633 264.122L519.72 265.656L519.725 265.671Z" fill="#401737"/>
<path d="M521.002 302.745L520.276 304.089L525.384 306.785L526.11 305.44L521.002 302.745Z" fill="#401737"/>
<path d="M465.63 312.693H464.089V293.515H463.293C453.609 293.515 445.729 301.306 445.729 310.88V312.404H444.188V310.88C444.188 300.463 452.762 291.991 463.293 291.991H465.63V312.693Z" fill="#401737"/>
<path d="M500.615 282.722C499.829 282.722 499.295 282.534 499.243 282.513L498.56 282.264L500.312 276.561L501.786 277.003L500.497 281.193C501.144 281.198 502.13 281.051 503.106 280.141L504.159 281.254C502.88 282.442 501.56 282.717 500.605 282.717L500.615 282.722Z" fill="#401737"/>
<path d="M500.707 277.795C500.194 277.795 499.7 277.698 499.233 277.505C496.351 276.307 495.986 270.232 497.281 267.053L498.709 267.621C497.532 270.501 498.185 275.413 499.829 276.098C500.795 276.5 502.064 276.175 503.394 275.184L504.319 276.403C503.086 277.323 501.843 277.795 500.697 277.795H500.707Z" fill="#401737"/>
<path d="M510.627 333.451L499.33 320.657L498.858 318.529L500.363 318.204L500.754 319.946L511.788 332.446L510.627 333.451Z" fill="#401737"/>
<path d="M511.023 326.869C508.994 322.851 506.985 320.063 505.213 318.808L506.112 317.569C508.121 318.991 510.237 321.891 512.405 326.188L511.028 326.869H511.023Z" fill="#401737"/>
<path d="M494.753 334.046H493.212L493.222 319.545L495.365 304.597L496.895 304.816L494.753 319.707V334.046Z" fill="#401737"/>
<path d="M498.169 335.305L496.685 334.894C498.457 328.611 498.965 323.633 498.118 320.891L497.969 320.408L498.354 320.083C499.15 319.418 499.952 318.651 500.733 317.798L501.873 318.824C501.164 319.59 500.445 320.296 499.721 320.926C500.676 324.827 499.423 330.846 498.164 335.3L498.169 335.305Z" fill="#401737"/>
<path d="M498.945 342.589H486.96L487.808 341.39C488.799 339.988 492.041 338.292 493.346 337.647L492.729 333.03L499.14 334.279L498.098 338.297C498.632 338.942 499.623 340.425 499.115 342.05L498.945 342.589ZM490.453 341.065H497.712C497.681 340.014 496.721 339.059 496.71 339.048L496.392 338.739L497.24 335.463L494.537 334.934L495.02 338.536L494.512 338.774C493.376 339.308 491.681 340.217 490.453 341.06V341.065Z" fill="#401737"/>
<path d="M514.531 340.938L513.602 339.719L517.999 336.443C517.182 335.518 515.744 335.27 515.728 335.265L515.98 333.761C516.093 333.781 518.729 334.223 519.735 336.29L520.008 336.854L514.531 340.933V340.938Z" fill="#401737"/>
<path d="M493.238 319.494L495.365 304.028L510.627 303.505L513.771 316.406L512.276 316.761L509.425 305.069L496.716 305.506L495.01 317.899L512.204 317.239L512.261 318.763L493.238 319.494Z" fill="#401737"/>
<path d="M510.776 305.572L495.19 305.532L495.817 299.31L497.347 299.462L496.89 304.018L509.266 304.054C509.446 292.712 507.797 286.257 506.368 282.818L507.791 282.239C509.312 285.886 511.064 292.768 510.792 304.836L510.776 305.582V305.572Z" fill="#401737"/>
<path d="M497.83 294.713L496.3 294.561L496.562 291.94L495.39 287.684L499.007 280.873L500.373 281.579L497.039 287.862L498.123 291.808L497.83 294.713Z" fill="#401737"/>
<path d="M502.916 284.271L502.85 269.704L496.248 268.013L496.813 267.129C496.957 266.905 498.257 264.904 499.408 264.234C501.678 262.903 505.269 262.796 507.463 265.234C509.667 267.693 510.663 277.734 510.771 278.872L510.781 279.004L510.745 279.131C509.744 282.981 505.706 284.154 503.707 284.235L502.906 284.266L502.916 284.271ZM498.729 267.073L504.386 268.526L504.447 282.62C505.798 282.381 508.449 281.574 509.225 278.877C508.927 275.819 507.869 267.982 506.312 266.245C504.73 264.488 501.961 264.508 500.199 265.544C499.777 265.788 499.207 266.448 498.729 267.073Z" fill="#401737"/>
<path d="M475.591 322.43H449.628C446.627 322.43 444.192 320.017 444.192 317.056V311.936H481.032V317.056C481.032 320.022 478.591 322.43 475.596 322.43H475.591ZM445.734 313.46V317.056C445.734 319.179 447.48 320.906 449.628 320.906H475.591C477.739 320.906 479.485 319.179 479.485 317.056V313.46H445.728H445.734Z" fill="#401737"/>
<path d="M486.821 305.694C486.102 305.694 485.393 305.349 484.967 304.719C484.284 303.708 484.561 302.337 485.583 301.667L485.645 301.631L487.53 300.62C487.7 300.529 487.88 300.463 488.075 300.427C488.835 299.889 489.667 299.163 490.546 298.396C491.306 297.735 492.087 297.055 492.935 296.384L493.705 295.775V295.79C495.051 294.81 496.839 293.703 498.904 293.144C498.837 291.813 498.817 288.735 499.808 285.942L500.05 285.261L507.576 287.389L507.494 288.034C506.887 292.91 503.841 296.547 503.713 296.699L503.61 296.821L490.212 303.327C490.104 303.515 489.965 303.688 489.801 303.83L488.065 305.323C487.684 305.572 487.258 305.694 486.832 305.694H486.821ZM486.41 302.946C486.117 303.16 486.04 303.566 486.246 303.871C486.446 304.171 486.852 304.257 487.165 304.079L488.773 302.687C488.825 302.642 488.871 302.581 488.897 302.505L489.005 302.215L502.623 295.602C503.101 294.993 505.218 292.138 505.865 288.491L501.041 287.13C500.147 290.244 500.481 293.621 500.486 293.657L500.558 294.337L499.88 294.48C497.974 294.871 496.125 295.826 493.895 297.578C493.078 298.223 492.308 298.893 491.563 299.538C490.597 300.382 489.683 301.179 488.815 301.778L488.645 301.895L488.44 301.915C488.373 301.92 488.316 301.936 488.265 301.966L486.415 302.957L486.41 302.946Z" fill="#401737"/>
<path d="M456.408 321.18L455.264 322.202L465.624 333.537L466.768 332.516L456.408 321.18Z" fill="#401737"/>
<path d="M455.155 334.081L454.015 333.055L479.84 305.029L485.409 303.556L485.804 305.029L480.672 306.385L455.155 334.081Z" fill="#401737"/>
<path d="M451.641 342.589C448.626 342.589 446.175 340.166 446.175 337.184C446.175 334.203 448.626 331.78 451.641 331.78C454.657 331.78 457.107 334.203 457.107 337.184C457.107 340.166 454.657 342.589 451.641 342.589ZM451.641 333.304C449.479 333.304 447.717 335.046 447.717 337.184C447.717 339.323 449.479 341.065 451.641 341.065C453.804 341.065 455.566 339.323 455.566 337.184C455.566 335.046 453.804 333.304 451.641 333.304Z" fill="#401737"/>
<path d="M468.224 342.589C465.209 342.589 462.758 340.166 462.758 337.184C462.758 334.203 465.209 331.78 468.224 331.78C471.24 331.78 473.691 334.203 473.691 337.184C473.691 340.166 471.24 342.589 468.224 342.589ZM468.224 333.304C466.062 333.304 464.3 335.046 464.3 337.184C464.3 339.323 466.062 341.065 468.224 341.065C470.387 341.065 472.149 339.323 472.149 337.184C472.149 335.046 470.387 333.304 468.224 333.304Z" fill="#401737"/>
<path d="M42.1306 237.426H40.3326V317.259H42.1306V237.426Z" fill="#173863"/>
<path d="M46.1633 321.053H44.3653V319.438C44.3653 319.205 44.1701 319.012 43.9337 319.012H38.7194C38.478 319.012 38.2879 319.205 38.2879 319.438V321.053H36.4899V319.438C36.4899 318.219 37.4916 317.234 38.7194 317.234H43.9337C45.1667 317.234 46.1633 318.224 46.1633 319.438V321.053Z" fill="#173863"/>
<path d="M49.2868 334.508H47.4887V326.849C47.4887 326.31 47.0469 325.873 46.5024 325.873H36.4334C35.8888 325.873 35.447 326.31 35.447 326.849V334.508H33.649V326.849C33.649 325.33 34.8973 324.096 36.4334 324.096H46.5024C48.0384 324.096 49.2868 325.33 49.2868 326.849V334.508Z" fill="#173863"/>
<path d="M57.4653 341.172H55.6672V337.179C55.6672 336.453 55.0713 335.864 54.3367 335.864H28.8611C28.1264 335.864 27.5305 336.453 27.5305 337.179V340.857H25.7325V337.179C25.7325 335.473 27.135 334.086 28.8611 334.086H54.3316C56.0577 334.086 57.4601 335.473 57.4601 337.179V341.172H57.4653Z" fill="#173863"/>
<path d="M47.2781 232.17H35.4881L30.0375 216.211V211.96H52.4513L52.3177 216.211L52.2818 216.328L47.273 232.165L47.2781 232.17ZM36.7775 230.392H45.9578L50.5351 215.917L50.6019 213.738H31.8355V215.917L36.7775 230.387V230.392Z" fill="#173863"/>
<path d="M45.1205 261.344H37.6406V263.121H45.1205V261.344Z" fill="#173863"/>
<path d="M44.9766 236.385H37.4968V238.163H44.9766V236.385Z" fill="#173863"/>
<path d="M49.4615 230.392H33.0068V232.17H49.4615V230.392Z" fill="#173863"/>
<path d="M129.663 228.674L127.983 229.307L132.565 241.195L134.245 240.562L129.663 228.674Z" fill="#173863"/>
</g>
<defs>
<clipPath id="clip0_451_2794">
<rect width="565" height="343" fill="white"/>
</clipPath>
</defs>
</svg>
